<svg height="469pt" viewBox="-64 0 469 469.33334" width="469pt" xmlns="http://www.w3.org/2000/svg"><path d="m21.5 21.332031h298.667969c11.78125 0 21.332031 9.550781 21.332031 21.335938v384c0 11.78125-9.550781 21.332031-21.332031 21.332031h-298.667969c-11.78125 0-21.332031-9.550781-21.332031-21.332031v-384c0-11.785157 9.550781-21.335938 21.332031-21.335938zm0 0" fill="#080b36"/><path d="m213.5 469.332031-196.78125-19.703125c-9.355469-.921875-16.550781-10.164062-16.550781-21.257812v-387.410156c0-11.09375 7.195312-20.335938 16.550781-21.257813l196.78125-19.703125s21.332031 0 21.332031 21.332031v426.667969c0 21.332031-21.332031 21.332031-21.332031 21.332031zm0 0" fill="#fcdf3f"/><path d="m16.71875 449.628906 151.988281 15.21875c6 .601563 11.96875-1.363281 16.441407-5.40625 4.46875-4.046875 7.019531-9.792968 7.019531-15.820312v-417.910156c0-6.027344-2.550781-11.773438-7.019531-15.816407-4.472657-4.046875-10.441407-6.011719-16.441407-5.410156l-151.988281 15.21875c-9.355469.921875-16.550781 10.164063-16.550781 21.257813v387.410156c0 11.09375 7.195312 20.335937 16.550781 21.257812zm0 0" fill="#ffef7d"/><path d="m40.707031 452.03125 64 6.410156c6 .597656 11.96875-1.367187 16.441407-5.410156 4.46875-4.042969 7.019531-9.789062 7.019531-15.816406v-405.09375c0-6.027344-2.550781-11.773438-7.019531-15.820313-4.472657-4.042969-10.441407-6.007812-16.441407-5.40625l-64 6.40625c-10.902343 1.09375-19.207031 10.269531-19.207031 21.226563v392.277344c0 10.960937 8.304688 20.136718 19.207031 21.226562zm0 0" fill="#fff6b5"/><path d="m164.070312 87.347656c-12.324218-23.953125-34.707031-39.078125-60.140624-37.222656-24.921876 1.820312-46.054688 19.503906-57.386719 43.890625l-25.042969 1.421875v117.894531l170.667969-1.382812v-126.195313zm0 0" fill="#fbc700"/><path d="m202.355469 86.457031-19.867188 1.019531c-.121093-.210937-.242187-.425781-.367187-.636718-25.234375-43.496094-87.933594-39.046875-111.269532 6.375l-.003906.003906-28.015625 1.4375v118.675781l170.667969-1.253906v-126.195313zm0 0" fill="#fcdf3f"/><path d="m85.5 417.972656-64-4.78125v-157.191406l64 .53125zm0 0" fill="#fcdf3f"/><path d="m42.832031 414.363281-21.332031-1.171875v-157.191406l21.332031.128906zm0 0" fill="#fbc700"/><path d="m192.167969 424.839844-85.335938-5.1875v-163.652344l85.335938.578125zm0 0" fill="#fcdf3f"/><path d="m128.167969 420.921875-21.335938-1.269531v-163.652344l21.335938.140625zm0 0" fill="#fbc700"/><path d="m64.167969 398.132812-21.335938-2.125v-118.675781l21.335938.53125zm0 0" fill="#fff6b5"/><path d="m170.832031 403.226562-42.664062-2.308593v-123.585938l42.664062.578125zm0 0" fill="#ffef7d"/><path d="m151 107.273438c-6.851562-23.65625-24.867188-39.710938-45.90625-38.253907-20.671875 1.429688-37.804688 19.355469-44.183594 42.925781l-18.078125.9375v79.117188l128-2.214844v-83.542968zm0 0" fill="#ffef7d"/><path d="m128.167969 75.03125c-6.851563-4.421875-14.9375-6.53125-23.074219-6.011719-20.671875 1.429688-37.804688 19.355469-44.183594 42.925781l-18.078125.9375v79.117188l85.335938-1.476562zm0 0" fill="#fff6b5"/></svg>